<svg width="58" height="57" viewBox="0 0 58 57" fill="none" xmlns="http://www.w3.org/2000/svg">
<path d="M34.7337 17.3067L36.428 16.2173C38.2253 15.0616 40.4082 14.6673 42.4963 15.121C44.5844 15.5748 46.4068 16.8395 47.5625 18.6368C48.7182 20.4342 49.1125 22.6171 48.6588 24.7052C48.205 26.7933 46.9404 28.6157 45.143 29.7714L43.4487 30.8607" stroke="#C31E39" stroke-width="2" stroke-linecap="round" stroke-linejoin="round"/>
<path d="M7.62564 34.7368L34.7337 17.3067L44.5381 32.555C45.6938 34.3524 46.0881 36.5352 45.6344 38.6234C45.1806 40.7115 43.916 42.5338 42.1186 43.6895L28.5646 52.4045C26.7672 53.5602 24.5843 53.9546 22.4962 53.5008C20.4081 53.0471 18.5857 51.7824 17.43 49.985L7.62564 34.7368Z" stroke="#C31E39" stroke-width="2" stroke-linecap="round" stroke-linejoin="round"/>
<path d="M6.77701 18.5195L10.0451 23.6022" stroke="#C31E39" stroke-width="2" stroke-linecap="round" stroke-linejoin="round"/>
<path d="M13.554 14.1619L16.8222 19.2447" stroke="#C31E39" stroke-width="2" stroke-linecap="round" stroke-linejoin="round"/>
<path d="M20.331 9.80444L23.5992 14.8872" stroke="#C31E39" stroke-width="2" stroke-linecap="round" stroke-linejoin="round"/>
</svg>
