<svg width="67" height="63" viewBox="0 0 67 63" fill="none" xmlns="http://www.w3.org/2000/svg">
<circle cx="3.5" cy="3.5" r="3.5" fill="#C31E39"/>
<circle cx="3.5" cy="17.5" r="3.5" fill="#C31E39"/>
<circle cx="3.5" cy="31.5" r="3.5" fill="#C31E39"/>
<circle cx="3.5" cy="45.5" r="3.5" fill="#C31E39"/>
<circle cx="3.5" cy="59.5" r="3.5" fill="#C31E39"/>
<circle cx="18.5" cy="3.5" r="3.5" fill="#C31E39"/>
<circle cx="18.5" cy="17.5" r="3.5" fill="#C31E39"/>
<circle cx="18.5" cy="31.5" r="3.5" fill="#C31E39"/>
<circle cx="18.5" cy="45.5" r="3.5" fill="#C31E39"/>
<circle cx="18.5" cy="59.5" r="3.5" fill="#C31E39"/>
<circle cx="33.5" cy="3.5" r="3.5" fill="#C31E39"/>
<circle cx="33.5" cy="17.5" r="3.5" fill="#C31E39"/>
<circle cx="33.5" cy="31.5" r="3.5" fill="#C31E39"/>
<circle cx="33.5" cy="45.5" r="3.5" fill="#C31E39"/>
<circle cx="33.5" cy="59.5" r="3.5" fill="#C31E39"/>
<circle cx="48.5" cy="3.5" r="3.5" fill="#C31E39"/>
<circle cx="48.5" cy="17.5" r="3.5" fill="#C31E39"/>
<circle cx="48.5" cy="31.5" r="3.5" fill="#C31E39"/>
<circle cx="48.5" cy="45.5" r="3.5" fill="#C31E39"/>
<circle cx="48.5" cy="59.5" r="3.5" fill="#C31E39"/>
<circle cx="63.5" cy="3.5" r="3.5" fill="#C31E39"/>
<circle cx="63.5" cy="17.5" r="3.5" fill="#C31E39"/>
<circle cx="63.5" cy="31.5" r="3.5" fill="#C31E39"/>
<circle cx="63.5" cy="45.5" r="3.5" fill="#C31E39"/>
<circle cx="63.5" cy="59.5" r="3.5" fill="#C31E39"/>
</svg>
