<svg width="76" height="76" viewBox="0 0 76 76" fill="none" xmlns="http://www.w3.org/2000/svg">
<g clip-path="url(#clip0_4_3024)">
<path d="M28.3408 23.0992C21.6736 27.3905 20.0557 35.4593 22.7273 41.2883C24.5413 45.153 27.9238 47.8811 32.0027 48.9664C35.5512 49.8595 38.633 52.1203 40.6225 55.2113L43.7481 60.0872C45.0147 62.055 47.6647 62.5986 49.6774 61.3031L54.3678 58.2841C56.3806 56.9887 56.9832 54.3514 55.7167 52.3836L52.591 47.5078C50.5437 44.3269 49.7211 40.739 50.4095 37.3858C51.165 33.7225 50.4471 30.08 48.5154 27.0788C44.2209 20.4264 35.1337 18.7269 28.3408 23.0992ZM53.8926 53.5577C54.4941 54.4921 54.2162 55.7385 53.2547 56.3573L48.5643 59.3763C47.6029 59.9951 46.3591 59.7409 45.7518 58.7975L44.3638 56.641L52.4956 51.4069L53.8836 53.5634L53.8926 53.5577ZM48.2263 36.9357C47.4034 40.9091 48.3233 45.0826 50.6771 48.7396L51.2208 49.5843L43.089 54.8183L42.5453 53.9736C40.3129 50.5053 36.6486 47.9712 32.5698 46.8859C29.0213 45.9929 26.2907 43.6458 24.7364 40.4018C22.5186 35.4753 23.9786 28.5628 29.5585 24.9713C35.399 21.2121 43.0447 22.7847 46.6015 28.3107C48.2267 30.8356 48.8326 33.8895 48.2263 36.9357Z" fill="#C31E39"/>
<path d="M24.5913 15.181L22.6774 16.4129L25.5691 20.9056L27.483 19.6737L24.5913 15.181Z" fill="#C31E39"/>
<path d="M40.8142 16.9895L43.0148 17.4666L44.2645 12.2018L42.0549 11.7305L40.8142 16.9895Z" fill="#C31E39"/>
<path d="M58.6774 21.8597L53.987 24.8787L55.1957 26.7566L59.8861 23.7377L58.6774 21.8597Z" fill="#C31E39"/>
<path d="M19.3393 47.1796L14.6489 50.1986L15.8576 52.0765L20.548 49.0576L19.3393 47.1796Z" fill="#C31E39"/>
<path d="M12.2715 30.8878L11.7854 33.0942L17.0951 34.1371L17.5722 31.9365L12.2715 30.8878Z" fill="#C31E39"/>
</g>
<defs>
<clipPath id="clip0_4_3024">
<rect width="54.7112" height="54.7112" fill="white" transform="translate(0 29.6112) rotate(-32.7673)"/>
</clipPath>
</defs>
</svg>
