<svg width="49" height="49" viewBox="0 0 49 49" fill="none" xmlns="http://www.w3.org/2000/svg">
<g clip-path="url(#clip0_4_3002)">
<path d="M11.8334 29.4C11.4418 29.0084 10.8092 29.0084 10.4176 29.4L4.86498 34.9526C4.47339 35.3442 4.47339 35.9768 4.86498 36.3684C5.0658 36.5592 5.31682 36.6596 5.57789 36.6596C5.82891 36.6596 6.08997 36.5592 6.28075 36.3684L11.8334 30.8158C12.2249 30.4242 12.2249 29.7916 11.8334 29.4Z" fill="#C31E39"/>
<path d="M48.7336 0.331548C48.5428 0.13073 48.2818 0.0102386 48.0006 0.0102386H31.2625C30.9914 0.0102386 30.7203 0.120692 30.5295 0.32151L20.1974 11.2058C20.1572 11.1958 20.1171 11.1958 20.0669 11.1958H9.95572C9.67457 11.1958 9.39343 11.3163 9.20265 11.5271L0.256225 21.5479C-0.00483762 21.8391 -0.0751238 22.2608 0.0855303 22.6223C0.246184 22.9838 0.607656 23.2147 0.99925 23.2147H10.6787L24.6154 38.266V47.9856C24.6154 48.3872 24.8564 48.7587 25.2379 48.9093C25.3584 48.9595 25.489 48.9897 25.6195 48.9897C25.8806 48.9897 26.1416 48.8893 26.3324 48.6985L36.4436 38.5873C36.6343 38.3965 36.7347 38.1455 36.7347 37.8744V28.2151L47.6291 17.3709C47.7998 17.2002 47.9102 16.9693 47.9203 16.7283L48.9947 1.06453C49.0248 0.803468 48.9244 0.532366 48.7336 0.331548ZM3.24841 21.2166L10.4076 13.204H18.2997L10.6887 21.2166H3.24841ZM12.5061 22.2407L31.6942 2.01841H45.4502L34.4053 12.1597C32.2967 10.6937 29.2844 10.8845 27.4268 12.7521C25.509 14.6699 25.2781 17.5517 26.7441 19.7004L18.1591 28.3456L12.5061 22.2407ZM33.6924 19.098C32.377 20.4133 30.158 20.4133 28.8426 19.098C27.4369 17.6922 27.4369 15.5736 28.8426 14.1679C30.158 12.8525 32.377 12.8525 33.6924 14.1679C35.0981 15.5736 35.0981 17.6922 33.6924 19.098ZM34.7366 37.4728L26.6336 45.5758V38.3062L34.7366 30.2333V37.4728ZM45.9623 16.2263L25.6496 36.4486L19.5146 29.8116L28.1498 21.1262C29.0736 21.7588 30.168 22.0801 31.2625 22.0801C32.6581 22.0801 34.0639 21.558 35.1081 20.5137C37.0259 18.5959 37.2569 15.7343 35.811 13.5855L46.8359 3.47434L45.9623 16.2263Z" fill="#C31E39"/>
<path d="M17.1249 36.1073L11.5723 41.6599C11.1807 42.0515 11.1807 42.6841 11.5723 43.0757C11.7731 43.2664 12.0242 43.3668 12.2852 43.3668C12.5463 43.3668 12.7973 43.2765 12.9881 43.0757L18.5407 37.5231C18.9323 37.1315 18.9323 36.4989 18.5407 36.1073C18.1491 35.7157 17.5165 35.7157 17.1249 36.1073Z" fill="#C31E39"/>
</g>
<defs>
<clipPath id="clip0_4_3002">
<rect width="49" height="49" fill="white"/>
</clipPath>
</defs>
</svg>
